PathFileType	4	(X/Y/Z)	s06c0401.trc
DataRate	CameraRate	NumFrames	NumMarkers	Units	OrigDataRate	OrigDataStartFrame	OrigNumFrames
200	200	4	48	mm	200	1000	2000
Frame#	Time	racr			lacr			c7			jug			rlel			rdr			llel			ldr			s2			lic			ric			lasi			rasi			rpsi			lpsi			rgt			lgt			rth1			rth2			rth3			rth4			rlfc			rmfc			rsh1			rsh2			rsh3			rsh4			rlmal			rcal			rtoe			rmt5			lth1			lth2			lth4			lth3			llfc			lmfc			llmal			lcal			lmt5			lsh1			lsh2			lsh3			lsh4			ltoe			SBIKE			LBIKE			RBIKE			
		X1	Y1	Z1	X2	Y2	Z2	X3	Y3	Z3	X4	Y4	Z4	X5	Y5	Z5	X6	Y6	Z6	X7	Y7	Z7	X8	Y8	Z8	X9	Y9	Z9	X10	Y10	Z10	X11	Y11	Z11	X12	Y12	Z12	X13	Y13	Z13	X14	Y14	Z14	X15	Y15	Z15	X16	Y16	Z16	X17	Y17	Z17	X18	Y18	Z18	X19	Y19	Z19	X20	Y20	Z20	X21	Y21	Z21	X22	Y22	Z22	X23	Y23	Z23	X24	Y24	Z24	X25	Y25	Z25	X26	Y26	Z26	X27	Y27	Z27	X28	Y28	Z28	X29	Y29	Z29	X30	Y30	Z30	X31	Y31	Z31	X32	Y32	Z32	X33	Y33	Z33	X34	Y34	Z34	X35	Y35	Z35	X36	Y36	Z36	X37	Y37	Z37	X38	Y38	Z38	X39	Y39	Z39	X40	Y40	Z40	X41	Y41	Z41	X42	Y42	Z42	X43	Y43	Z43	X44	Y44	Z44	X45	Y45	Z45	X46	Y46	Z46	X47	Y47	Z47	X48	Y48	Z48	
1000	5.0000	753.188019	1128.133539	-46.832781	746.735285	1109.875199	-377.940331	800.018925	1229.585940	-211.259494	724.121043	1060.864643	-198.594165	550.908936	1026.947017	106.185705	660.738988	925.449432	-44.977063	524.552701	1039.008799	-531.284666	657.714930	925.187532	-422.764811	224.609788	1220.414959	-218.605385	373.505677	1136.076348	-388.428550	348.324576	1165.727524	-61.533082	375.434311	1081.000951	-353.652371	364.941571	1112.624378	-93.854837	271.355457	1254.569858	-196.545195	267.647520	1243.740222	-257.122585	335.423178	1118.626661	-23.805442	307.267187	1068.326078	-416.646378	424.303736	1032.427121	-31.422916	506.696481	990.726849	-45.987734	551.881726	917.584674	-51.878168	524.175739	1014.632083	-70.182888	594.783413	836.153404	-79.513102	574.849708	817.893125	-195.305983	511.459796	746.887506	-50.377479	455.514255	681.268323	-65.554434	375.462110	646.379645	-58.359093	468.025755	666.108328	-101.541710	297.071051	599.144957	-58.430880	223.804354	608.486376	-101.678145	425.617752	420.410580	-112.219445	341.769139	466.952336	-38.952392	282.300975	937.928810	-435.463516	303.031045	853.368998	-432.249994	340.081614	852.485166	-425.164817	277.963589	767.941927	-419.125446	260.953375	652.922233	-397.778530	270.947103	633.623177	-278.418223	114.668087	313.759631	-374.490149	57.343395	337.415554	-325.810736	151.899169	167.241296	-406.731745	215.791593	553.725749	-416.006027	205.706535	468.922523	-397.791871	153.812167	398.266552	-394.761597	235.029099	461.322867	-372.471894	214.920687	103.994411	-352.521516	-204.509129	868.758880	-220.139158	-50.536372	80.206834	-419.939961	-50.490009	80.037517	-22.663548	
1001	5.0050	753.495211	1127.353165	-45.990375	746.951920	1109.398287	-376.956308	800.627878	1229.417024	-210.262414	724.208074	1060.765384	-197.778993	551.259337	1026.773701	106.614078	660.852552	925.888962	-44.531679	525.004415	1040.059900	-531.135333	657.564805	925.196042	-423.152887	225.734100	1224.024160	-218.610388	373.768497	1138.084112	-387.936215	348.636585	1168.671942	-61.028047	375.044607	1082.974606	-353.401694	364.423014	1115.170283	-93.096796	272.744036	1257.874709	-196.351833	268.879283	1246.943635	-257.130215	334.775683	1122.023514	-23.331798	307.347967	1070.939055	-416.178804	422.287821	1034.025990	-30.370342	503.888337	990.873889	-45.389534	549.598650	918.293309	-50.657551	521.404110	1014.694656	-70.033771	591.529559	834.368214	-78.297342	570.557815	816.239174	-193.935111	508.571929	744.263165	-49.378559	454.172920	677.232990	-64.376162	375.081334	640.608007	-57.397647	467.352110	662.276119	-100.209666	298.152412	590.950278	-57.706711	224.143908	597.362629	-100.846572	434.637928	419.101525	-112.350039	348.842649	461.388241	-38.391017	284.706234	939.652361	-434.838223	307.219719	855.596084	-431.335252	344.199439	855.423091	-423.886870	283.612675	769.635280	-418.800647	267.616578	654.523871	-396.700160	274.824324	635.949488	-277.576263	108.016761	320.808119	-373.496346	50.547494	345.133909	-325.727784	143.299725	173.921412	-406.259694	220.207226	556.315653	-415.029684	206.101863	472.230181	-396.198983	151.115604	403.850031	-393.718804	234.416818	463.681658	-370.010535	205.641143	109.991346	-352.191419	-204.408988	868.799290	-219.919813	-50.552044	80.323759	-419.884035	-50.470076	80.066604	-22.620207	
1002	5.0100	754.054405	1126.830052	-45.213294	747.195340	1109.072431	-376.085465	801.190671	1229.399834	-209.491067	724.382173	1060.704042	-197.252548	551.585582	1027.003618	107.010278	660.830653	926.258949	-44.266214	525.340877	1041.334507	-531.010074	657.337282	925.188474	-423.762403	226.691134	1227.343744	-217.414672	374.026317	1140.087287	-387.427150	348.666684	1171.550326	-60.522377	374.640524	1084.859265	-353.175313	364.840776	1118.202790	-92.643492	274.113226	1261.120859	-196.145140	269.860476	1249.430812	-254.976715	334.305511	1124.739545	-23.299536	307.396666	1073.411561	-415.743594	419.612182	1034.608807	-30.104807	500.950746	990.619479	-44.716361	546.202886	918.041313	-49.194098	518.269143	1014.101059	-69.646184	587.059782	833.598292	-75.926716	565.212381	813.444986	-192.082675	505.134018	740.578869	-47.653636	452.481103	672.175309	-63.062771	374.303226	633.694511	-56.372246	466.316637	657.421586	-98.639579	299.032323	581.957097	-56.891682	224.323949	585.401885	-100.094006	442.993330	417.206725	-112.367166	355.363875	455.289517	-37.816951	287.440223	941.377560	-433.834262	311.825602	857.950805	-430.212410	348.809305	858.580888	-422.470460	290.116758	771.400045	-418.517089	274.939153	655.952372	-395.602095	279.534409	638.375730	-276.495980	102.270333	328.413846	-372.787835	45.323290	353.887247	-326.075750	135.206135	181.048582	-405.799353	225.499255	558.735520	-414.094160	207.323349	475.740734	-394.817841	149.421481	409.680060	-392.921733	234.444335	466.289407	-367.588113	196.326752	116.197856	-351.416482	-204.363518	868.912984	-219.583832	-50.574886	80.455561	-419.814134	-50.494028	80.073741	-22.572531	
1003	5.0150	754.541520	1126.421082	-44.719588	747.375098	1108.992976	-375.516128	801.761560	1229.489392	-208.820468	724.534161	1060.643129	-197.075011	551.944626	1027.549289	107.284098	660.669001	926.606256	-44.169833	525.593254	1042.794123	-530.913314	657.061273	925.257067	-424.692480	227.720944	1230.506347	-216.751360	374.332488	1142.174193	-386.978162	348.698488	1173.888483	-60.153353	374.360581	1086.670080	-352.900861	365.385553	1120.774400	-92.387578	275.313297	1263.782598	-195.885186	271.221817	1251.553886	-253.021225	333.726036	1126.767861	-23.548474	307.452459	1075.729956	-415.396915	417.348553	1035.565747	-28.078002	498.194878	989.957234	-43.764984	542.014445	916.751498	-47.716645	514.848531	1012.855274	-68.988973	583.666357	829.611595	-75.672528	558.776487	809.422538	-190.826913	501.223885	735.702931	-45.904174	450.288857	665.964960	-61.579555	373.086165	625.760309	-55.354185	464.708471	651.584398	-97.026940	299.496988	571.944882	-56.194208	224.517708	572.199318	-99.649313	450.717887	414.682506	-112.232893	361.246348	448.344365	-37.567693	290.420819	943.180969	-432.532092	316.884841	860.388790	-428.822036	353.755617	861.974907	-420.898700	297.472651	773.356411	-418.013471	282.703832	657.235813	-394.537492	284.720359	640.569159	-275.986229	98.136747	336.472022	-372.665659	41.138613	363.191461	-327.092182	128.094770	188.145996	-405.279908	231.307449	561.364491	-412.945780	209.421420	479.458342	-393.330763	149.048409	415.641842	-392.363483	235.410586	469.423200	-365.285744	187.718362	122.348187	-350.509462	-204.330064	869.013396	-219.304815	-50.625281	80.706221	-419.849240	-50.492387	80.103556	-22.533450	
